<?xml version="1.0" standalone="no"?>
<!DOCTYPE svg PUBLIC "-//W3C//DTD SVG 20010904//EN"
 "http://www.w3.org/TR/2001/REC-SVG-20010904/DTD/svg10.dtd">
<svg version="1.0" xmlns="http://www.w3.org/2000/svg"
 width="361.000000pt" height="46.000000pt" viewBox="0 0 361.000000 46.000000"
 preserveAspectRatio="xMidYMid meet">

<g transform="translate(0.000000,46.000000) scale(0.100000,-0.100000)"
fill="#000000" stroke="none">
<path d="M1432 263 l-2 -183 -692 -3 -693 -2 692 -3 692 -2 4 -32 4 -33 1 32
2 33 1073 3 1072 2 -1072 3 -1073 2 -3 183 -2 182 -3 -182z"/>
<path d="M98 379 c-37 -21 -20 -38 40 -41 50 -3 57 -6 60 -25 3 -22 0 -23 -57
-23 l-61 0 0 -75 c0 -73 1 -75 25 -75 23 0 25 3 25 50 l0 50 53 0 c29 0 58 5
65 12 19 19 15 102 -6 121 -21 19 -116 23 -144 6z"/>
<path d="M1310 265 l0 -125 25 0 25 0 0 125 0 125 -25 0 -25 0 0 -125z"/>
<path d="M1523 384 c-7 -3 -13 -14 -13 -25 0 -17 8 -19 91 -19 88 0 90 1 87
23 -3 20 -9 22 -78 24 -41 1 -81 -1 -87 -3z"/>
<path d="M990 345 c0 -20 -5 -25 -25 -25 -20 0 -25 -5 -25 -25 0 -20 5 -25 25
-25 24 0 25 -2 25 -65 0 -63 1 -65 25 -65 24 0 25 2 25 65 0 63 1 65 25 65 20
0 25 5 25 25 0 20 -5 25 -25 25 -20 0 -25 5 -25 25 0 20 -5 25 -25 25 -20 0
-25 -5 -25 -25z"/>
<path d="M3020 345 c0 -20 -5 -25 -25 -25 -20 0 -25 -5 -25 -25 0 -20 5 -25
25 -25 24 0 25 -2 25 -65 0 -58 2 -65 20 -65 18 0 20 7 20 65 0 63 1 65 25 65
20 0 25 5 25 25 0 20 -5 25 -25 25 -20 0 -25 5 -25 25 0 18 -5 25 -20 25 -15
0 -20 -7 -20 -25z"/>
<path d="M280 231 c0 -91 0 -91 25 -91 l26 0 -3 88 c-3 82 -4 87 -25 90 -22 3
-23 1 -23 -87z"/>
<path d="M357 313 c-4 -3 -7 -44 -7 -90 0 -83 0 -83 26 -83 26 0 26 0 19 60
-5 41 -4 60 4 60 7 0 11 -23 11 -60 0 -57 1 -60 25 -60 24 0 25 3 25 60 0 33
4 60 10 60 6 0 10 -27 10 -60 0 -57 1 -60 25 -60 25 0 25 1 25 78 0 47 -5 83
-12 90 -13 13 -149 17 -161 5z"/>
<path d="M552 308 c-12 -12 -17 -123 -6 -152 5 -13 23 -16 90 -16 83 0 84 0
84 25 0 24 -2 25 -65 25 -51 0 -65 3 -65 15 0 12 14 15 66 15 l65 0 -3 48 -3
47 -75 3 c-50 2 -79 -1 -88 -10z m128 -43 c0 -11 -12 -15 -45 -15 -33 0 -45 4
-45 15 0 11 12 15 45 15 33 0 45 -4 45 -15z"/>
<path d="M752 308 c-7 -7 -12 -43 -12 -90 0 -77 0 -78 25 -78 24 0 25 3 25 60
l0 60 40 0 40 0 0 -60 c0 -57 1 -60 25 -60 25 0 25 1 25 84 0 67 -3 85 -16 90
-28 11 -140 6 -152 -6z"/>
<path d="M1114 307 c-3 -8 -4 -47 -2 -88 l3 -74 88 -3 87 -3 0 26 c0 24 -2 25
-65 25 -50 0 -65 3 -65 15 0 10 16 15 63 17 l62 3 0 45 0 45 -83 3 c-63 2 -84
0 -88 -11z m126 -42 c0 -11 -11 -15 -40 -15 -29 0 -40 4 -40 15 0 11 11 15 40
15 29 0 40 -4 40 -15z"/>
<path d="M1704 307 c-3 -8 -4 -47 -2 -88 l3 -74 88 -3 87 -3 0 26 c0 24 -2 25
-65 25 -50 0 -65 3 -65 15 0 10 16 15 63 17 l62 3 0 45 0 45 -83 3 c-63 2 -84
0 -88 -11z m126 -42 c0 -11 -11 -15 -40 -15 -29 0 -40 4 -40 15 0 11 11 15 40
15 29 0 40 -4 40 -15z"/>
<path d="M1907 313 c-4 -3 -7 -44 -7 -90 0 -82 0 -83 25 -83 24 0 25 2 25 70
l0 70 35 0 c28 0 35 4 35 20 0 18 -7 20 -53 20 -30 0 -57 -3 -60 -7z"/>
<path d="M2047 314 c-4 -4 -7 -45 -7 -91 0 -83 0 -83 26 -83 l26 0 -7 70 -7
70 42 0 c34 0 41 3 38 18 -2 13 -15 18 -53 20 -28 2 -54 0 -58 -4z"/>
<path d="M2170 295 c0 -24 2 -25 65 -25 51 0 65 -3 65 -15 0 -12 -13 -15 -60
-15 -55 0 -60 -2 -66 -24 -3 -13 -4 -35 -2 -47 3 -23 6 -24 88 -24 l85 0 0 85
0 85 -87 3 -88 3 0 -26z m130 -100 c0 -11 -11 -15 -40 -15 -29 0 -40 4 -40 15
0 11 11 15 40 15 29 0 40 -4 40 -15z"/>
<path d="M2383 314 c-9 -4 -13 -32 -13 -90 0 -83 0 -84 25 -84 23 0 24 4 28
63 l3 62 2 -62 c2 -60 3 -63 27 -63 24 0 25 3 25 60 0 33 4 60 10 60 6 0 10
-27 10 -60 0 -58 1 -60 25 -60 l26 0 -3 88 -3 87 -75 2 c-41 1 -81 -1 -87 -3z"/>
<path d="M2574 307 c-3 -8 -4 -47 -2 -88 l3 -74 88 -3 87 -3 0 26 c0 24 -2 25
-65 25 -50 0 -65 3 -65 15 0 10 16 15 63 17 l62 3 0 45 0 45 -83 3 c-63 2 -84
0 -88 -11z m126 -42 c0 -11 -11 -15 -40 -15 -29 0 -40 4 -40 15 0 11 11 15 40
15 29 0 40 -4 40 -15z"/>
<path d="M2777 313 c-4 -3 -7 -44 -7 -90 0 -82 0 -83 25 -83 24 0 25 3 25 60
l0 60 40 0 40 0 0 -60 c0 -57 1 -60 25 -60 25 0 25 1 25 80 0 68 -3 81 -19 90
-22 11 -144 14 -154 3z"/>
<path d="M3130 295 c0 -24 2 -25 65 -25 51 0 65 -3 65 -15 0 -12 -13 -15 -60
-15 -55 0 -60 -2 -66 -24 -3 -13 -4 -35 -2 -47 3 -23 6 -24 88 -24 l85 0 0 85
0 85 -87 3 -88 3 0 -26z m130 -100 c0 -11 -11 -15 -40 -15 -29 0 -40 4 -40 15
0 11 11 15 40 15 29 0 40 -4 40 -15z"/>
<path d="M3333 304 c-4 -10 11 -32 43 -65 l48 -49 -47 0 c-43 0 -47 -2 -47
-25 0 -25 1 -25 85 -25 110 0 117 12 49 81 l-48 49 47 0 c43 0 47 2 47 25 0
25 -1 25 -85 25 -69 0 -87 -3 -92 -16z"/>
<path d="M1510 215 c0 -73 1 -75 25 -75 23 0 25 3 25 50 l0 50 66 0 c62 0 65
1 62 23 -3 21 -8 22 -90 25 l-88 3 0 -76z"/>
</g>
</svg>
